<svg xmlns="http://www.w3.org/2000/svg" width="58" height="58" viewBox="0 0 58 58"><g fill="none" fill-rule="evenodd"><path fill="#FDFDFD" d="M-1021-171H419V79h-1440z"/><circle cx="29" cy="29" r="29" fill="#C2C4D0"/><path fill="#F2F2F3" fill-rule="nonzero" d="M37.247 12.007L32.45 12c-5.39 0-8.872 3.284-8.872 8.367v3.858h-4.824c-.416 0-.754.311-.754.694v5.59c0 .383.338.693.754.693h4.824v14.105c0 .383.337.693.754.693h6.293c.417 0 .754-.31.754-.693V31.202h5.64c.416 0 .754-.31.754-.693l.002-5.59a.67.67 0 0 0-.22-.49.79.79 0 0 0-.534-.204h-5.642v-3.27c0-1.572.408-2.37 2.636-2.37l3.231-.001c.416 0 .754-.31.754-.693V12.7c0-.383-.337-.693-.753-.694z"/></g></svg>