<svg width="246" height="260" viewBox="0 0 246 260" xmlns="http://www.w3.org/2000/svg"><title>map</title><g fill="#FFF" opacity=".415"><path d="M194.567 97.09c-1.91 1.175-4.443.592-5.628-1.301a4.04 4.04 0 0 1 1.313-5.579l65.496-40.6a4.114 4.114 0 0 1 5.628 1.302c.419.668.615 1.403.615 2.14H262v154.215c0 1.521-.852 2.848-2.107 3.55l-73.437 48.51a4.113 4.113 0 0 1-3.966.296v.009L78.143 211.889 6.361 259.32c-1.876 1.243-4.427.736-5.672-1.123a4.055 4.055 0 0 1-.674-2.612l.051-152.771c0-1.48.802-2.773 2.005-3.474l-.009-.009L59.32 65.806c1.936-1.133 4.444-.499 5.595 1.42a4.03 4.03 0 0 1-1.441 5.545L8.22 105.129l-.05 143.244 67.321-44.488.009.008a4.098 4.098 0 0 1 3.974-.313l104.372 47.735 69.966-46.212V60.363L194.567 97.09z"/><path d="M130.505 0c15.868 0 30.24 6.366 40.642 16.646l.009.008.009-.008C181.567 26.918 188 41.137 188 56.828c0 15.902-8.99 34.797-20.37 52.567-11.197 17.5-24.62 33.85-33.96 45.12a4.136 4.136 0 0 1-5.775.566 4.15 4.15 0 0 1-.787-.854c-9.385-11.32-22.722-27.603-33.765-44.857C81.973 91.591 73 72.705 73 56.82c0-15.691 6.442-29.902 16.836-40.182C100.247 6.366 114.628 0 130.505 0zm34.868 22.378c-8.922-8.8-21.25-14.253-34.86-14.253s-25.937 5.452-34.851 14.261c-8.915 8.81-14.44 20.992-14.44 34.434 0 14.126 8.409 31.576 19.06 48.238 9.7 15.158 21.266 29.632 30.214 40.487 8.965-10.881 20.565-25.388 30.223-40.47 10.66-16.646 19.077-34.112 19.077-48.256 0-13.45-5.518-25.633-14.431-34.442h.008z"/><path d="M131.5 32c6.76 0 12.9 2.747 17.323 7.177v.017C153.253 43.625 156 49.756 156 56.5c0 6.744-2.748 12.875-7.177 17.306l-.017.017C144.375 78.253 138.244 81 131.5 81c-6.76 0-12.9-2.747-17.323-7.177A24.424 24.424 0 0 1 107 56.5c0-6.752 2.747-12.876 7.177-17.306v-.017A24.442 24.442 0 0 1 131.5 32zm11.557 12.943l-.01.01a16.293 16.293 0 0 0-11.548-4.78 16.293 16.293 0 0 0-11.548 4.78l-.009-.01a16.34 16.34 0 0 0-4.77 11.557c0 4.508 1.828 8.598 4.779 11.55a16.293 16.293 0 0 0 11.548 4.778 16.33 16.33 0 0 0 11.549-4.762l.017-.017a16.312 16.312 0 0 0 4.762-11.549 16.252 16.252 0 0 0-4.77-11.557zm45.924 211.021c0 2.23-2.01 4.036-4.49 4.036-2.48 0-4.491-1.807-4.491-4.036l.019-145.928c0-2.23 2.011-4.036 4.49-4.036 2.481 0 4.491 1.807 4.491 4.036l-.019 145.928zM81.972 205.948c0 2.239-2.008 4.052-4.486 4.052-2.477 0-4.486-1.814-4.486-4.052l.028-95.896c0-2.238 2.008-4.052 4.486-4.052 2.478 0 4.486 1.814 4.486 4.052l-.028 95.896z"/></g></svg>