<svg xmlns="http://www.w3.org/2000/svg" width="58" height="58" viewBox="0 0 58 58"><g fill="none" fill-rule="evenodd"><path fill="#FDFDFD" d="M-933-171H507V79H-933z"/><circle cx="29" cy="29" r="29" fill="#C2C4D0"/><path fill="#F2F2F3" fill-rule="nonzero" d="M37.371 43a1.43 1.43 0 0 1-.756-.214l-8.549-5.339-4.585 3.038c-.36.238-.823.298-1.24.16a1.285 1.285 0 0 1-.847-.85l-2.303-8.033-8.226-2.896c-.518-.182-.861-.638-.865-1.149-.004-.51.333-.97.848-1.16l31.28-11.459a1.444 1.444 0 0 1 1.468.256 1.185 1.185 0 0 1 .399.992 1.115 1.115 0 0 1-.022.142l-5.28 25.505c-.085.41-.388.753-.806.912a1.446 1.446 0 0 1-.516.095zm-8.554-8.078l7.615 4.755 4.108-19.846-14.837 13.146 3.078 1.922a.744.744 0 0 1 .036.023zm-6.34-1.058l1.02 3.557 2.197-1.455-2.876-1.797a1.298 1.298 0 0 1-.34-.305zm-7.428-6.178l5.649 1.988c.404.143.71.456.82.841l.716 2.5c.033-.288.175-.56.406-.764l14.138-12.525-21.73 7.96z"/></g></svg>