<svg xmlns="http://www.w3.org/2000/svg" width="58" height="58" viewBox="0 0 58 58">
    <g fill="none" fill-rule="evenodd">
        <path fill="#FDFDFD" d="M-1109-171H331V79h-1440z"/>
        <g>
            <circle cx="29" cy="29" r="29" fill="#C2C4D0"/>
            <path fill="#F2F2F3" fill-rule="nonzero" d="M42.704 32.081c1.26 1.087 2.591 2.11 3.722 3.307.5.532.972 1.081 1.334 1.699.512.877.048 1.843-.842 1.895l-5.536-.002c-1.428.105-2.567-.403-3.525-1.266-.766-.69-1.476-1.424-2.213-2.137-.302-.291-.619-.565-.996-.782-.756-.434-1.412-.3-1.844.396-.44.708-.54 1.492-.583 2.282-.06 1.151-.453 1.454-1.763 1.507-2.798.116-5.454-.258-7.921-1.505-2.175-1.1-3.862-2.652-5.33-4.41-2.859-3.421-5.048-7.181-7.015-11.047-.443-.87-.12-1.338.969-1.355 1.806-.03 3.611-.029 5.42-.002.733.01 1.22.381 1.503.994.977 2.123 2.172 4.142 3.673 6.014.4.499.807.997 1.388 1.348.642.388 1.13.26 1.432-.372.192-.4.276-.832.32-1.262.142-1.476.161-2.95-.09-4.42-.154-.919-.74-1.513-1.776-1.687-.53-.088-.45-.262-.194-.53.445-.46.863-.746 1.697-.746h6.257c.985.172 1.204.563 1.338 1.438l.006 6.14c-.01.34.191 1.346.883 1.57.553.16.917-.231 1.249-.541 1.498-1.405 2.567-3.065 3.522-4.784.424-.756.789-1.54 1.142-2.325.261-.582.672-.868 1.414-.856l6.022.005c.178 0 .359.002.532.028 1.014.153 1.292.539.979 1.414-.494 1.374-1.454 2.518-2.394 3.668-1.004 1.228-2.078 2.414-3.074 3.648-.915 1.128-.842 1.697.294 2.676z"/>
        </g>
    </g>
</svg>
