               <svg xmlns="http://www.w3.org/2000/svg" viewBox="0 0 512 512" width="80" height="80">
                  <g fill="#3C3D49">
                     <path d="M375.45 315.733c0-4.71-3.822-8.533-8.532-8.533h-51.2c-4.71 0-8.533 3.823-8.533 8.533s3.823 8.533 8.533 8.533h51.2c4.71 0 8.533-3.822 8.533-8.533zM341.317 93.867V51.2c0-4.71-3.823-8.533-8.533-8.533s-8.533 3.823-8.533 8.533v42.667c0 23.526 19.14 42.667 42.668 42.667h76.8v162.133c0 4.71 3.823 8.533 8.533 8.533s8.534-3.823 8.534-8.533V128c0-4.71-3.823-8.533-8.533-8.533H366.92c-14.115 0-25.6-11.486-25.6-25.6zM366.917 204.8H298.65c-4.71 0-8.533 3.823-8.533 8.533 0 4.71 3.823 8.533 8.533 8.533h68.267c4.71 0 8.533-3.823 8.533-8.533 0-4.71-3.822-8.533-8.533-8.533zM273.05 213.333c0-4.71-3.822-8.533-8.532-8.533h-51.2c-4.71 0-8.533 3.823-8.533 8.533 0 4.71 3.823 8.533 8.533 8.533h51.2c4.71 0 8.533-3.822 8.533-8.533zM213.317 256c-4.71 0-8.533 3.823-8.533 8.533 0 4.71 3.823 8.533 8.533 8.533h17.067c4.71 0 8.533-3.823 8.533-8.533 0-4.71-3.823-8.533-8.533-8.533h-17.067zM213.317 170.667h85.333c4.71 0 8.533-3.823 8.533-8.533 0-4.71-3.823-8.533-8.533-8.533h-85.333c-4.71 0-8.533 3.824-8.533 8.534 0 4.71 3.823 8.533 8.533 8.533zM264.517 273.067h85.333c4.71 0 8.533-3.823 8.533-8.533 0-4.71-3.823-8.533-8.533-8.533h-85.333c-4.71 0-8.533 3.824-8.533 8.534 0 4.71 3.823 8.533 8.533 8.533zM315.717 358.4c-4.71 0-8.533 3.823-8.533 8.533s3.823 8.533 8.533 8.533h17.067c4.71 0 8.533-3.823 8.533-8.533s-3.823-8.533-8.533-8.533h-17.067zM281.584 307.2h-68.267c-4.71 0-8.533 3.823-8.533 8.533s3.823 8.533 8.533 8.533h68.267c4.71 0 8.533-3.823 8.533-8.533s-3.823-8.533-8.533-8.533zM281.584 358.4h-68.267c-4.71 0-8.533 3.823-8.533 8.533s3.823 8.533 8.533 8.533h68.267c4.71 0 8.533-3.823 8.533-8.533s-3.823-8.533-8.533-8.533zM484.754 351.497l-17.067-17.067c-13.116-13.116-33.1-13.09-46.2 0L309.685 446.234c-1.596 1.596-2.5 3.772-2.5 6.033v51.2c0 4.71 3.823 8.533 8.533 8.533h51.2c2.26 0 4.437-.904 6.033-2.5l111.804-111.804c13.594-13.594 13.594-32.597 0-46.2zm-74.3 18.1l13.534 13.533-74.138 74.138-13.534-13.534 74.138-74.138zM324.25 494.932V455.8l39.135 39.133H324.25zm51.2-12.066l-13.533-13.534 74.138-74.138 13.534 13.534-74.14 74.137zm97.238-97.237l-11.034 11.034-39.134-39.134 11.034-11.034c6.74-6.733 15.292-6.767 22.067 0l17.068 17.067c6.903 6.912 6.903 15.163 0 22.067z"/>
                     <path d="M281.584 494.933H59.717c-14.114 0-25.6-11.486-25.6-25.6V42.667c0-14.114 11.486-25.6 25.6-25.6H329.25L412.085 99.9c3.336 3.337 8.73 3.337 12.066 0 3.337-3.336 3.337-8.73 0-12.066L338.817 2.5C337.22.896 335.045 0 332.784 0H59.717C36.19 0 17.05 19.14 17.05 42.667v426.667C17.05 492.86 36.19 512 59.72 512h221.867c4.71 0 8.533-3.822 8.533-8.532s-3.824-8.535-8.534-8.535z"/>
                     <path d="M281.584 409.6h-68.267c-4.71 0-8.533 3.823-8.533 8.533s3.823 8.533 8.533 8.533h68.267c4.71 0 8.533-3.823 8.533-8.533s-3.823-8.533-8.533-8.533zM170.65 162.133c0-4.71-3.822-8.533-8.532-8.533h-51.2c-4.71 0-8.533 3.823-8.533 8.533v51.2c0 4.71 3.823 8.533 8.533 8.533h51.2c4.71 0 8.533-3.823 8.533-8.533v-51.2zM153.585 204.8H119.45v-34.133h34.134V204.8zM110.917 426.667h51.2c4.71 0 8.533-3.823 8.533-8.533v-51.2c0-4.71-3.823-8.533-8.533-8.533h-51.2c-4.71 0-8.533 3.824-8.533 8.534v51.2c0 4.71 3.823 8.533 8.533 8.533zm8.534-51.2h34.134V409.6H119.45v-34.133zM121.95 321.766c1.605 1.604 3.78 2.5 6.034 2.5.282 0 .555-.008.845-.043 2.542-.247 4.837-1.63 6.254-3.755l34.133-51.2c2.61-3.925 1.553-9.225-2.364-11.836-3.934-2.62-9.216-1.553-11.836 2.364l-28.356 42.54-9.71-9.703c-3.336-3.337-8.73-3.337-12.066 0s-3.337 8.73 0 12.066l17.067 17.066z"/>
                  </g>
               </svg>