<svg xmlns="http://www.w3.org/2000/svg" viewBox="0 0 470 470" width="80" height="80"><g fill="#3C3D49"><path d="M360.828 384.34c1.705-1.375 2.798-3.48 2.798-5.84v-341c0-4.143-3.357-7.5-7.5-7.5H139.14c-5.35-17.353-21.535-30-40.62-30-18.778 0-35.21 12.514-40.614 30H33.874c-4.143 0-7.5 3.357-7.5 7.5v425c0 4.143 3.357 7.5 7.5 7.5H272.06c2.426 0 4.528-1.092 5.903-2.794l82.865-82.867zm-81.202 59.988V386h58.327l-58.327 58.328zM98.52 15c10.663 0 19.922 6.105 24.482 15H74.036C78.64 21.052 88.01 15 98.52 15zM41.374 45h84.646v52.5c0 6.893-5.607 12.5-12.5 12.5s-12.5-5.607-12.5-12.5v-30c0-4.143-3.357-7.5-7.5-7.5s-7.5 3.357-7.5 7.5v30c0 15.163 12.337 27.5 27.5 27.5s27.5-12.337 27.5-27.5V45h207.606v326h-76.5c-4.143 0-7.5 3.357-7.5 7.5V455H41.374V45z"/><path d="M296.126 345.5c4.143 0 7.5-3.357 7.5-7.5s-3.357-7.5-7.5-7.5H93.874c-4.143 0-7.5 3.357-7.5 7.5s3.357 7.5 7.5 7.5h202.252zM93.874 300.5h202.252c4.143 0 7.5-3.357 7.5-7.5s-3.357-7.5-7.5-7.5H93.874c-4.143 0-7.5 3.357-7.5 7.5s3.357 7.5 7.5 7.5zM93.874 255.5h202.252c4.143 0 7.5-3.357 7.5-7.5s-3.357-7.5-7.5-7.5H93.874c-4.143 0-7.5 3.357-7.5 7.5s3.357 7.5 7.5 7.5zM93.874 210.5h202.252c4.143 0 7.5-3.357 7.5-7.5s-3.357-7.5-7.5-7.5H93.874c-4.143 0-7.5 3.357-7.5 7.5s3.357 7.5 7.5 7.5zM93.874 165.5h202.252c4.143 0 7.5-3.357 7.5-7.5s-3.357-7.5-7.5-7.5H93.874c-4.143 0-7.5 3.357-7.5 7.5s3.357 7.5 7.5 7.5zM396.126 30h-10c-4.143 0-7.5 3.357-7.5 7.5s3.357 7.5 7.5 7.5h2.5v410h-80.072c-4.143 0-7.5 3.357-7.5 7.5s3.357 7.5 7.5 7.5h87.572c4.143 0 7.5-3.357 7.5-7.5v-425c0-4.143-3.357-7.5-7.5-7.5zM436.126 30h-10c-4.143 0-7.5 3.357-7.5 7.5s3.357 7.5 7.5 7.5h2.5v410h-2.5c-4.143 0-7.5 3.357-7.5 7.5s3.357 7.5 7.5 7.5h10c4.143 0 7.5-3.357 7.5-7.5v-425c0-4.143-3.357-7.5-7.5-7.5z"/></g></svg>