<svg width="120" xmlns="http://www.w3.org/2000/svg" viewBox="0 0 465.46 465.46"><path fill="#E2B369" d="M406.995 78.76v377.7h-278.76v-25.89h252.88V78.76"/><path fill="#E2B369" d="M372.115 43.88v377.69H93.355v-25.88h252.88V43.88M127.805 15.36v62.97h-62.97"/><path d="M337.235 9v377.69H58.465V87.33h78.34V9h200.43zm-42.92 333.82v-9h-192.93v9h192.93zm0-37.4v-9h-192.93v9h192.93zm0-37.4v-9h-192.93v9h192.93zm0-37.39v-9h-192.93v9h192.93zm0-37.4v-9h-192.93v9h192.93zm0-37.4v-9h-192.93v9h192.93zm0-37.4v-9h-192.93v9h192.93zm-47.64-37.4v-9h-92.01v9h92.01z" fill="#FFCC73"/><path d="M415.995 69.76v395.7h-296.76v-34.89h-34.88v-34.88h-34.89V80.97L130.445 0h215.79v34.88h34.88v34.88h34.88zm-9 386.7V78.76h-25.88v351.81h-252.88v25.89h278.76zm-34.88-34.89V43.88h-25.88v351.81H93.355v25.88h278.76zm-34.88-34.88V9h-200.43v78.33h-78.34v299.36h278.77zM127.805 78.33V15.36l-62.97 62.97h62.97z"/><path d="M101.385 333.82h192.93v9h-192.93zM101.385 296.42h192.93v9h-192.93zM101.385 259.02h192.93v9h-192.93zM101.385 221.63h192.93v9h-192.93zM101.385 184.23h192.93v9h-192.93zM101.385 146.83h192.93v9h-192.93zM101.385 109.43h192.93v9h-192.93zM154.665 72.03h92.01v9h-92.01z"/></svg>