<svg xmlns="http://www.w3.org/2000/svg" viewBox="0 0 512 512" width="80" height="80"><g fill="#3C3D49"><path d="M366.827 144.213c-9.387-9.387-26.453-9.387-35.84 0l-35.84 35.84c-5.12 4.267-7.68 11.093-7.68 17.92s2.56 12.8 7.68 17.92l60.587 60.587c5.12 5.12 11.093 7.68 17.92 7.68 5.973 0 12.8-2.56 17.92-7.68l35.84-35.84c5.12-4.267 7.68-11.093 7.68-17.92s-2.56-12.8-7.68-17.92l-60.587-60.587zm48.64 85.334l-35.84 35.84c-3.413 3.413-8.533 3.413-11.947 0L307.093 204.8c-1.707-1.707-2.56-3.413-2.56-5.973s.853-4.267 2.56-5.973l35.84-36.693c1.707-1.706 3.413-2.56 5.973-2.56s5.12.854 5.973 3.414l60.586 60.587c1.707 1.708 2.56 3.414 2.56 5.974s-.853 4.266-2.56 5.973z"/><path d="M349.76 186.88c-3.413-3.413-8.533-3.413-11.947 0s-3.413 8.533 0 11.947l35.84 35.84c1.707 1.707 3.413 2.56 5.973 2.56 1.707 0 4.267-.853 5.973-2.56 3.412-3.413 3.412-8.533 0-11.947l-35.84-35.84z"/><path d="M452.16 180.053l-115.2-115.2c-10.95-10.95-25.372-16.686-39.965-17.227C284.075 20.34 258.835 0 221.76 0c-34.83 0-59.213 17.954-72.752 42.755-1.344-.053-2.692-.088-4.048-.088-56.32 0-102.4 46.08-102.4 102.4 0 37.702 20.652 70.812 51.2 88.585v82.082c0 2.56.853 4.267 2.56 5.973l11.093 11.093-11.093 11.093c-3.413 3.413-3.413 8.533 0 11.947l11.093 11.093-11.093 11.094c-3.413 3.413-3.413 8.533 0 11.947l11.093 11.093L96.32 412.16c-1.707 1.707-2.56 3.413-2.56 5.973s.853 4.267 2.56 5.973l11.093 11.093-11.093 11.093c-3.413 3.413-3.413 8.533 0 11.947l11.093 11.093-11.093 11.094c-3.413 3.413-3.413 8.533 0 11.947l17.067 17.067c1.707 1.708 3.413 2.56 5.973 2.56h34.133c.165 0 .333-.007.504-.02 4.13-.187 7.08-2.656 8.366-6.457l32.09-48.135c.853-1.707 1.707-3.413 1.707-5.12V233.65c13.9-8.086 25.748-19.35 34.536-32.777L331.84 301.227c11.093 11.093 26.453 17.067 41.813 17.067s30.72-5.12 42.667-17.92l35.84-35.84c23.04-23.04 23.04-61.44 0-84.48zm-136.533-69.12c0 9.387-7.68 17.067-17.067 17.067s-17.067-7.68-17.067-17.067c0-6.378 3.55-11.96 8.767-14.888.838 3.884 3.948 6.355 8.3 6.355s7.46-2.47 8.3-6.355c5.217 2.93 8.767 8.51 8.767 14.888zM221.76 17.067c27.537 0 46.257 13.81 57.03 32.632-9.69 2.617-18.814 7.658-26.31 15.154l-22.83 22.83c-14.394-21.132-36.47-36.66-62.122-42.49 11.09-16.48 28.943-28.127 54.232-28.127zm-85.1 78.978c.838 3.884 3.948 6.355 8.3 6.355s7.46-2.47 8.3-6.355c5.217 2.928 8.767 8.51 8.767 14.888 0 9.387-7.68 17.067-17.067 17.067s-17.067-7.68-17.067-17.067c0-6.377 3.55-11.96 8.767-14.888zM114.24 486.4l11.093-11.093c3.413-3.413 3.413-8.533 0-11.947l-11.093-11.093 11.093-11.093c1.707-1.707 2.56-3.413 2.56-5.973s-.853-4.266-2.56-5.972l-11.093-11.093 11.093-11.093c3.413-3.413 3.413-8.533 0-11.947L114.24 384l11.093-11.093c3.413-3.413 3.413-8.533 0-11.947l-11.093-11.093 11.093-11.093c1.707-1.707 2.56-3.413 2.56-5.973s-.853-4.266-2.56-5.972l-14.507-14.507v-70.745c1.26.45 2.53.88 3.814 1.282 9.832 3.268 19.74 4.61 30.32 4.61v247.467H122.77l-8.532-8.534zm64.853-36.693l-16.213 24.32V245.884c5.57-.994 10.987-2.447 16.213-4.31v208.133zm6.16-229.494c-.662.153-1.3.405-1.893.8-1.76.96-3.55 1.86-5.368 2.694-10.173 4.307-21.337 6.693-33.032 6.693-2.59 0-5.15-.136-7.685-.365-10.658-1.08-21.065-3.912-30.715-9.02-.71-.475-1.49-.803-2.294-1.014-26.536-14.51-44.64-42.71-44.64-74.933 0-45.843 36.643-83.524 82.083-85.25-1.862 5.77-3.232 11.736-4.11 17.797-15.265 3.39-26.773 17.072-26.773 33.32 0 18.773 15.36 34.133 34.133 34.133s34.133-15.36 34.133-34.133c0-15.363-10.29-28.434-24.314-32.678.975-5.884 2.515-11.697 4.63-17.264 40.008 6.902 70.716 41.888 70.874 83.75-.004.56-.01 1.115-.026 1.67-.003.172-.01.343-.013.515-.42 12.64-3.763 24.535-9.34 35.687-.443.888-.71 1.834-.822 2.792-7.957 14.714-20.11 26.86-34.83 34.807zM439.36 253.44l-35.84 35.84c-17.067 16.213-44.373 16.213-60.587 0L239.036 185.382c2.415-5.592 4.347-11.436 5.738-17.482.03-.123.053-.248.08-.37.15-.666.3-1.332.437-2.002.095-.456.18-.914.266-1.372.077-.406.157-.81.23-1.217.048-.27.09-.542.135-.813.942-5.553 1.44-11.25 1.44-17.06 0-.134-.005-.266-.005-.4 0-.15.005-.302.005-.455 0-14.507-2.56-28.16-8.533-40.96l25.6-25.6c6.177-5.868 13.698-9.6 21.547-11.22 1.184 3.87 2.105 7.83 2.767 11.822-14.024 4.244-24.313 17.315-24.313 32.678 0 18.773 15.36 34.133 34.133 34.133 18.773 0 34.133-15.36 34.133-34.133 0-16.247-11.508-29.93-26.773-33.32-.55-3.8-1.294-7.56-2.23-11.26 7.9 1.578 15.362 5.34 21.323 11.3L439.36 193.707c8.533 7.68 12.8 18.773 12.8 29.867s-5.12 22.186-12.8 29.866z"/></g></svg>