<svg width="120" xmlns="http://www.w3.org/2000/svg" viewBox="0 0 512 512"><path d="M490.667 0h-249.6l-121.6 120.533v370.133c0 11.733 9.6 21.333 21.333 21.333h349.867C502.4 512 512 502.4 512 490.666V21.333C512 9.6 502.4 0 490.667 0z" fill="#F3F3F3"/><g fill="#E8EAE9"><path d="M172.8 411.733h285.867V444.8H172.8zM172.8 324.267h285.867v33.067H172.8zM172.8 236.8h285.867v33.067H172.8zM172.8 149.333h285.867V182.4H172.8zM289.067 60.8h169.6v33.067h-169.6z"/></g><path fill="#CED6E0" d="M241.067 0l-121.6 120.533h121.6"/><circle cx="148.267" cy="363.733" r="148.267" fill="#F7B64C"/><circle cx="148.267" cy="363.733" r="107.733" fill="#FFD15C"/><path d="M140.8 434.133v-12.8c-14.933-2.133-27.733-8.533-40.533-20.267l16-19.2c8.533 7.467 17.067 12.8 24.533 14.933v-25.6c-11.733-3.2-21.333-7.468-26.667-12.8-5.333-5.334-8.533-12.8-8.533-22.4 0-9.6 3.2-18.134 9.6-24.534 6.4-6.4 14.933-10.667 25.6-11.733V291.2h18.133v8.533c11.733 1.067 23.467 6.4 34.133 13.867L179.2 333.867c-7.467-5.333-13.867-8.533-20.267-10.667v24.533c12.8 3.2 21.333 7.467 27.733 12.8 6.4 5.333 8.533 12.8 8.533 23.467 0 9.6-3.2 18.133-9.6 24.533-6.4 6.4-14.934 10.667-26.668 11.733V432H140.8v2.133zm0-108.8c-5.333 2.133-7.467 5.333-7.467 9.6s2.133 8.533 7.467 10.667v-20.267zm27.733 62.934c0-2.133-1.067-4.267-2.133-6.4-1.067-2.133-3.2-3.2-6.4-4.267v21.333c5.333-2.133 8.533-5.333 8.533-10.666z" fill="#F7B64C"/></svg>