<svg xmlns="http://www.w3.org/2000/svg" viewBox="0 0 512 512" width="80" height="80"><path d="M487.59 299.894h-7.662V230.88c0-10.927-5.438-20.6-13.743-26.48v-9.396c0-13.63-11.09-24.72-24.72-24.72h-5.72l21.888-32.12c7.337-10.766 4.547-25.495-6.22-32.833L302.884 4.11c-5.215-3.554-11.5-4.866-17.705-3.69-6.2 1.176-11.574 4.695-15.128 9.91l-128.2 188.124h-35.676l8.607-87.13c.098-.982.736-1.833 1.626-2.168 11.09-4.18 20.7-11.99 27.06-21.985.5-.786 1.445-1.236 2.423-1.137l55.954 5.528c4.012.39 7.58-2.532 7.977-6.542s-2.532-7.58-6.542-7.977l-55.955-5.527c-6.495-.636-12.69 2.357-16.17 7.825-4.675 7.35-11.74 13.09-19.894 16.164-6.138 2.314-10.352 7.826-11 14.387l-8.748 88.563H82.21L95.82 60.65c.49-4.96 4.918-8.605 9.884-8.108l113.074 11.17c4.01.387 7.58-2.533 7.977-6.543s-2.533-7.582-6.543-7.978l-113.074-11.17C94.174 36.742 82.58 46.248 81.3 59.214l-10.972 111.07H51.643c-13.63 0-24.72 11.09-24.72 24.72v6.41c-11.15 5.134-18.915 16.406-18.915 29.465v248.694c0 17.88 14.546 32.426 32.427 32.426h407.067c17.88 0 32.426-14.546 32.426-32.426V410.56h7.662c9.044 0 16.4-7.357 16.4-16.4v-77.865c.002-9.044-7.356-16.4-16.4-16.4zm-46.125-115.018c5.586 0 10.13 4.543 10.13 10.13v3.716c-1.343-.17-2.706-.267-4.093-.267h-30.955l9.253-13.58h15.665zM282.107 18.546c1.36-1.994 3.415-3.34 5.787-3.79.567-.107 1.136-.16 1.7-.16 1.798 0 3.554.537 5.072 1.57l148.53 101.22c4.12 2.808 5.187 8.442 2.38 12.56l-46.685 68.506h-11.203l22.89-33.587c3.71-5.447 4.017-12.38.795-18.092-4.282-7.59-6.018-16.527-4.888-25.166.84-6.427-1.988-12.7-7.38-16.375L322.106 52.76c-5.393-3.675-12.267-4.012-17.94-.88-7.626 4.21-16.58 5.864-25.21 4.656-6.4-.898-12.89 1.992-16.547 7.357l-91.7 134.56h-11.204l122.6-179.906zm3.213 123.892c-31.77 0-57.85 24.773-59.976 56.015h-36.98l86.1-126.343c.49-.72 1.3-1.147 2.134-1.147.11 0 .222.008.333.023 11.74 1.642 23.914-.604 34.286-6.33.816-.453 1.864-.388 2.672.162l77 52.473c.805.55 1.248 1.503 1.128 2.427-1.537 11.75.825 23.903 6.648 34.225.467.83.41 1.89-.144 2.706l-28.488 41.804H345.3c-2.128-31.24-28.207-56.014-59.98-56.014zm45.348 56.016h-90.695c2.09-23.19 21.624-41.424 45.347-41.424 23.724 0 43.26 18.235 45.348 41.424zm-289.154-3.45c0-5.586 4.543-10.13 10.13-10.13h17.243l-1.34 13.58H41.513v-3.45zM22.6 230.88c0-9.835 8-17.836 17.835-17.836h407.067c9.835 0 17.835 8 17.835 17.835v20.243H22.6V230.88zm442.737 248.694c0 9.834-8 17.835-17.835 17.835H40.435c-9.835 0-17.836-8.002-17.836-17.836V459.33h39.34c4.03 0 7.296-3.266 7.296-7.295 0-4.03-3.266-7.295-7.295-7.295H22.6V265.714h442.737v34.18H395.97c-21.856 0-40.788 12.74-49.773 31.18-.03.063-.064.123-.095.185-.076.156-.142.32-.216.477-1.07 2.273-2 4.626-2.757 7.054l-.007.02c-1.615 5.19-2.486 10.703-2.486 16.417 0 30.51 24.822 55.333 55.332 55.333h69.366v34.18h-356.68c-4.03 0-7.296 3.266-7.296 7.295 0 4.03 3.266 7.295 7.295 7.295h356.682v20.244zM489.4 394.16c0 .997-.81 1.81-1.81 1.81h-91.618c-15.445 0-28.91-8.64-35.818-21.34-.314-.576-.614-1.162-.9-1.755-.574-1.187-1.09-2.406-1.548-3.654-1.602-4.365-2.476-9.08-2.476-13.993s.875-9.628 2.476-13.994c.458-1.247.975-2.466 1.547-3.654.287-.594.587-1.18.9-1.757 6.908-12.7 20.374-21.338 35.82-21.338h91.617c.998 0 1.81.812 1.81 1.81v77.864z" fill="#3C3D49"/><path d="M397.68 325.627c-16.32 0-29.6 13.28-29.6 29.6s13.28 29.6 29.6 29.6c16.323 0 29.6-13.28 29.6-29.6s-13.277-29.6-29.6-29.6zm0 44.608c-8.275 0-15.008-6.733-15.008-15.008 0-8.275 6.733-15.01 15.01-15.01s15.008 6.734 15.008 15.01-6.733 15.008-15.01 15.008z" fill="#3C3D49"/></svg>