<svg width="100" viewBox="0 0 278 360" xmlns="http://www.w3.org/2000/svg"><title>004-technology-1</title><g fill="none" fill-rule="evenodd"><path d="M248.09 360H29.91C13.87 360 .87 346.998.87 330.96V29.04C.87 13.003 13.87 0 29.91 0h218.18c16.04 0 29.04 13.002 29.04 29.04v301.92c.002 16.038-13 29.04-29.04 29.04z" fill-rule="nonzero" fill="#1DD2A5"/><g fill-rule="nonzero"><path d="M66.65 150.418c8.282 19.337 22.483 33.46 41.775 41.754 9.618 4.138 19.63 6.233 30.157 6.284.105 0 .207.005.317.005 10.644.01 20.75-2.102 30.478-6.24 19.466-8.286 33.545-22.396 41.84-41.69 4.172-9.712 6.28-19.908 6.288-30.553.008-10.643-2.083-20.758-6.24-30.48-8.266-19.305-22.323-33.352-41.776-41.67-9.722-4.157-19.824-6.28-30.47-6.287-.11 0-.21.005-.316.005-10.528.034-20.543 2.115-30.167 6.236C89.232 56.04 75.01 70.06 66.7 89.386c-4.164 9.678-6.196 19.826-6.204 30.47-.01 10.644 2.007 20.876 6.155 30.563zm77.22-52.13l28.327.023c1.28 7.21 1.876 14.423 1.87 21.633-.005 6.694-.61 13.818-1.734 21.456l-28.497-.023.034-43.088zm15.392 77.443c-4.693 6.747-9.794 10.9-15.463 12.436l.028-37.343 26.35.02c-2.578 9.873-6.237 18.16-10.916 24.888zm5.83 8.16c6.785-8.494 11.777-19.567 14.963-33.038l20.518.016c-7.31 14.846-20.027 26.59-35.482 33.022zm39.38-85.554c2.317 6.95 3.51 14.164 3.505 21.633-.006 7.293-1.126 14.506-3.363 21.454l-22.665-.018c1.122-7.293 1.642-14.417 1.648-21.456.005-7.124-.504-14.34-1.615-21.632l22.49.018zm-3.85-9.45l-20.52-.015c-3.165-13.223-8.14-24.13-14.912-32.716 15.194 6.277 27.89 18.048 35.432 32.733zm-41.358-24.67c4.695 6.63 8.31 14.86 10.963 24.647l-26.35-.02.028-37c5.577 1.553 10.62 5.685 15.36 12.373zM77.386 150.77l20.513.017c3.17 13.476 8.136 24.558 14.91 33.062-15.446-6.455-28.14-18.22-35.424-33.08zm26.547-30.882c.006-7.21.61-14.423 1.906-21.63l28.33.023-.034 43.09-28.5-.023c-1.114-7.64-1.708-14.765-1.703-21.46zm14.635 55.81c-4.712-6.702-8.31-15.027-10.793-24.904l26.354.02-.03 37.343c-5.58-1.635-10.814-5.76-15.532-12.458zm.262-111.514c4.743-6.68 9.794-10.805 15.376-12.348l-.03 36.998-26.353-.02c2.67-9.783 6.3-18.006 11.007-24.63zm-5.92-8.07c-6.787 8.575-11.77 19.474-14.962 32.693l-20.513-.016c7.562-14.672 20.278-26.424 35.474-32.677zm-39.35 42.12l22.493.018c-1.12 7.29-1.645 14.505-1.65 21.63-.006 7.038.507 14.163 1.616 21.458l-22.668-.018c-2.226-6.95-3.332-14.166-3.327-21.46.007-7.47 1.21-14.68 3.536-21.628z" fill="#FCE98E"/><path d="M211.264 89.498c-8.264-19.306-22.32-33.353-41.774-41.67-9.722-4.158-19.823-6.28-30.47-6.288H139v156.917c10.608-.005 20.68-2.114 30.377-6.24 19.466-8.285 33.545-22.395 41.84-41.688 4.172-9.714 6.28-19.91 6.288-30.555.008-10.642-2.083-20.756-6.24-30.477zm-10.642-.61l-20.52-.017c-3.165-13.223-8.14-24.13-14.912-32.716 15.194 6.277 27.89 18.048 35.432 32.733zm-56.716-37.044c5.576 1.552 10.618 5.684 15.358 12.372 4.695 6.63 8.31 14.86 10.963 24.647l-26.35-.02.03-37zm-.036 46.445l28.327.02c1.28 7.21 1.875 14.424 1.87 21.633-.005 6.695-.61 13.818-1.733 21.457l-28.497-.022.033-43.09zm-.07 89.876l.03-37.343 26.35.02c-2.58 9.873-6.24 18.16-10.917 24.888-4.694 6.747-9.795 10.9-15.463 12.436zm21.29-4.276c6.787-8.494 11.78-19.567 14.965-33.04l20.518.017c-7.31 14.847-20.027 26.592-35.482 33.023zm39.524-42.466l-22.665-.018c1.122-7.293 1.642-14.417 1.648-21.456.005-7.124-.504-14.34-1.615-21.632l22.49.017c2.316 6.95 3.51 14.164 3.504 21.633-.006 7.295-1.126 14.508-3.363 21.456z" fill="#FAE16E"/></g><path d="M65.5 299h-6.336v-24.69H48.13V299h-6.357v-29.982H65.5V299zm25.923 0l-2.174-7.137H78.317L76.145 299h-6.85l10.582-30.105h7.772L98.27 299h-6.85zm-3.692-12.47c-2.008-6.466-3.14-10.123-3.393-10.97-.253-.848-.434-1.518-.543-2.01-.45 1.75-1.743 6.077-3.876 12.98h7.813zm27.05-12.652c-2.39 0-4.244.9-5.556 2.697-1.313 1.798-1.97 4.303-1.97 7.516 0 6.686 2.51 10.03 7.527 10.03 2.107 0 4.657-.527 7.65-1.58v5.332c-2.46 1.025-5.208 1.538-8.243 1.538-4.362 0-7.698-1.323-10.008-3.968-2.312-2.646-3.467-6.443-3.467-11.392 0-3.117.567-5.848 1.702-8.193 1.135-2.345 2.765-4.143 4.89-5.394 2.127-1.25 4.62-1.876 7.476-1.876 2.913 0 5.84.704 8.78 2.112l-2.052 5.167c-1.12-.533-2.25-.998-3.384-1.394-1.135-.397-2.25-.595-3.343-.595zM152.537 299H146.2v-24.69h-11.034V299h-6.357v-29.982h23.726V299zm34.78-15.032c0 4.963-1.23 8.777-3.69 11.443-2.46 2.667-5.988 4-10.582 4s-8.12-1.333-10.582-4c-2.46-2.665-3.69-6.493-3.69-11.483s1.232-8.8 3.7-11.433c2.468-2.632 6.006-3.948 10.613-3.948 4.607 0 8.13 1.326 10.572 3.978 2.44 2.653 3.66 6.467 3.66 11.444zm-21.88 0c0 3.35.635 5.872 1.907 7.567 1.27 1.695 3.172 2.543 5.7 2.543 5.073 0 7.61-3.37 7.61-10.11 0-6.754-2.523-10.13-7.568-10.13-2.53 0-4.437.85-5.722 2.552-1.285 1.702-1.927 4.228-1.927 7.578zm34.453-.84h2.09c1.956 0 3.418-.387 4.39-1.16.97-.772 1.455-1.897 1.455-3.373 0-1.49-.407-2.59-1.22-3.302-.813-.71-2.088-1.066-3.825-1.066h-2.89v8.9zm14.354-4.76c0 3.228-1.008 5.695-3.025 7.404-2.017 1.71-4.885 2.564-8.604 2.564h-2.727V299h-6.36v-29.982h9.578c3.637 0 6.402.782 8.296 2.348 1.893 1.565 2.84 3.9 2.84 7.003zM231.47 299h-6.357v-24.69h-8.14v-5.292h22.64v5.29h-8.142V299z" fill="#585858"/></g></svg>