<svg width="100" viewBox="0 0 278 360" xmlns="http://www.w3.org/2000/svg"><title>004-technology-1</title><g fill="none" fill-rule="evenodd"><path d="M248.09 360H29.91C13.87 360 .87 346.998.87 330.96V29.04C.87 13.003 13.87 0 29.91 0h218.18c16.04 0 29.04 13.002 29.04 29.04v301.92c.002 16.038-13 29.04-29.04 29.04z" fill-rule="nonzero" fill="#F14A5E"/><g fill-rule="nonzero" fill="#FEF7D3"><path d="M66.65 150.418c8.282 19.337 22.483 33.46 41.775 41.754 9.618 4.138 19.63 6.233 30.157 6.284.105 0 .207.005.317.005 10.644.01 20.75-2.102 30.478-6.24 19.466-8.286 33.545-22.396 41.84-41.69 4.172-9.712 6.28-19.908 6.288-30.553.008-10.643-2.083-20.758-6.24-30.48-8.266-19.305-22.323-33.352-41.776-41.67-9.722-4.157-19.824-6.28-30.47-6.287-.11 0-.21.005-.316.005-10.528.034-20.543 2.115-30.167 6.236C89.232 56.04 75.01 70.06 66.7 89.386c-4.164 9.678-6.196 19.826-6.204 30.47-.01 10.644 2.007 20.876 6.155 30.563zm77.22-52.13l28.327.023c1.28 7.21 1.876 14.423 1.87 21.633-.005 6.694-.61 13.818-1.734 21.456l-28.497-.023.034-43.088zm15.392 77.443c-4.693 6.747-9.794 10.9-15.463 12.436l.028-37.343 26.35.02c-2.578 9.873-6.237 18.16-10.916 24.888zm5.83 8.16c6.785-8.494 11.777-19.567 14.963-33.038l20.518.016c-7.31 14.846-20.027 26.59-35.482 33.022zm39.38-85.554c2.317 6.95 3.51 14.164 3.505 21.633-.006 7.293-1.126 14.506-3.363 21.454l-22.665-.018c1.122-7.293 1.642-14.417 1.648-21.456.005-7.124-.504-14.34-1.615-21.632l22.49.018zm-3.85-9.45l-20.52-.015c-3.165-13.223-8.14-24.13-14.912-32.716 15.194 6.277 27.89 18.048 35.432 32.733zm-41.358-24.67c4.695 6.63 8.31 14.86 10.963 24.647l-26.35-.02.028-37c5.577 1.553 10.62 5.685 15.36 12.373zM77.386 150.77l20.513.017c3.17 13.476 8.136 24.558 14.91 33.062-15.446-6.455-28.14-18.22-35.424-33.08zm26.547-30.882c.006-7.21.61-14.423 1.906-21.63l28.33.023-.034 43.09-28.5-.023c-1.114-7.64-1.708-14.765-1.703-21.46zm14.635 55.81c-4.712-6.702-8.31-15.027-10.793-24.904l26.354.02-.03 37.343c-5.58-1.635-10.814-5.76-15.532-12.458zm.262-111.514c4.743-6.68 9.794-10.805 15.376-12.348l-.03 36.998-26.353-.02c2.67-9.783 6.3-18.006 11.007-24.63zm-5.92-8.07c-6.787 8.575-11.77 19.474-14.962 32.693l-20.513-.016c7.562-14.672 20.278-26.424 35.474-32.677zm-39.35 42.12l22.493.018c-1.12 7.29-1.645 14.505-1.65 21.63-.006 7.038.507 14.163 1.616 21.458l-22.668-.018c-2.226-6.95-3.332-14.166-3.327-21.46.007-7.47 1.21-14.68 3.536-21.628z"/><path d="M211.264 89.498c-8.264-19.306-22.32-33.353-41.774-41.67-9.722-4.158-19.823-6.28-30.47-6.288H139v156.917c10.608-.005 20.68-2.114 30.377-6.24 19.466-8.285 33.545-22.395 41.84-41.688 4.172-9.714 6.28-19.91 6.288-30.555.008-10.642-2.083-20.756-6.24-30.477zm-10.642-.61l-20.52-.017c-3.165-13.223-8.14-24.13-14.912-32.716 15.194 6.277 27.89 18.048 35.432 32.733zm-56.716-37.044c5.576 1.552 10.618 5.684 15.358 12.372 4.695 6.63 8.31 14.86 10.963 24.647l-26.35-.02.03-37zm-.036 46.445l28.327.02c1.28 7.21 1.875 14.424 1.87 21.633-.005 6.695-.61 13.818-1.733 21.457l-28.497-.022.033-43.09zm-.07 89.876l.03-37.343 26.35.02c-2.58 9.873-6.24 18.16-10.917 24.888-4.694 6.747-9.795 10.9-15.463 12.436zm21.29-4.276c6.787-8.494 11.78-19.567 14.965-33.04l20.518.017c-7.31 14.847-20.027 26.592-35.482 33.023zm39.524-42.466l-22.665-.018c1.122-7.293 1.642-14.417 1.648-21.456.005-7.124-.504-14.34-1.615-21.632l22.49.017c2.316 6.95 3.51 14.164 3.504 21.633-.006 7.295-1.126 14.508-3.363 21.456z"/></g><path d="M28.055 274.73h7.553c3.442 0 5.94.488 7.496 1.468 1.555.98 2.333 2.537 2.333 4.673 0 1.45-.34 2.64-1.02 3.57-.682.93-1.587 1.49-2.716 1.677v.166c1.54.343 2.65.985 3.33 1.926.68.94 1.02 2.19 1.02 3.75 0 2.214-.8 3.94-2.398 5.18-1.6 1.24-3.77 1.86-6.516 1.86h-9.08v-24.27zm5.146 9.61h2.99c1.394 0 2.404-.215 3.03-.647.625-.43.937-1.145.937-2.14 0-.93-.34-1.598-1.02-2.002-.68-.403-1.758-.605-3.23-.605H33.2v5.396zm0 4.085v6.325h3.355c1.416 0 2.462-.27 3.137-.813.676-.543 1.013-1.373 1.013-2.49 0-2.015-1.44-3.022-4.316-3.022H33.2zm39.73-1.594c0 4.02-.997 7.107-2.99 9.265-1.992 2.158-4.847 3.237-8.566 3.237-3.72 0-6.574-1.08-8.566-3.237-1.993-2.158-2.99-5.257-2.99-9.297 0-4.04 1-7.125 2.998-9.256 1.998-2.13 4.86-3.195 8.59-3.195 3.73 0 6.584 1.073 8.56 3.22 1.975 2.148 2.963 5.235 2.963 9.264zm-17.715 0c0 2.713.514 4.755 1.544 6.127 1.028 1.372 2.566 2.06 4.614 2.06 4.106 0 6.16-2.73 6.16-8.186 0-5.466-2.043-8.2-6.127-8.2-2.047 0-3.59.69-4.632 2.067-1.04 1.378-1.56 3.422-1.56 6.134zM91.937 299H77.96v-24.27h13.978v4.215h-8.833v5.33h8.218v4.216h-8.218v6.26h8.832V299zm24.953 0h-5.13v-10.476h-9.613V299H97v-24.27h5.147v9.51h9.613v-9.51h5.13V299zm5.013-2.374c0-.93.25-1.633.747-2.108.498-.476 1.223-.714 2.175-.714.92 0 1.63.243 2.133.73.504.487.756 1.184.756 2.092 0 .874-.255 1.563-.764 2.067-.51.503-1.217.755-2.125.755-.93 0-1.65-.246-2.158-.74-.51-.49-.764-1.186-.764-2.082zm24.786-12.584h2.025c3.165 0 5.61.642 7.338 1.926 1.726 1.284 2.59 3.1 2.59 5.445 0 5.058-3.343 7.587-10.028 7.587h-7.072v-24.27h15.34v4.25H146.69v5.062zm0 10.74h1.726c1.738 0 3.01-.278 3.818-.837.808-.56 1.212-1.403 1.212-2.532 0-1.118-.41-1.923-1.228-2.415-.82-.493-2.225-.74-4.217-.74h-1.31v6.525zm16.55-20.053h4.633v11.72l-.066 3.137-.166 3.57h.1l11.206-18.428h6.16V299h-4.583v-11.654c0-1.56.1-3.874.3-6.94h-.134L169.433 299h-6.193v-24.27zm47.2 24.27h-5.13v-19.988h-5.944l-.265 2.224c-.686 5.656-1.292 9.626-1.817 11.912-.526 2.285-1.292 3.893-2.3 4.823-1.007.93-2.368 1.384-4.084 1.362-.93 0-1.75-.122-2.458-.365v-4.217c.642.22 1.245.332 1.81.332.587 0 1.05-.268 1.394-.805.344-.537.667-1.533.972-2.988.304-1.457.708-3.842 1.212-7.157.503-3.314.932-6.45 1.286-9.404h15.323V299zm20.104 0h-13.98v-24.27h13.98v4.215h-8.832v5.33h8.218v4.216h-8.218v6.26h8.832V299zm14.427 0h-5.146v-19.988h-6.59v-4.283h18.328v4.282h-6.59V299z" fill="#FFF"/></g></svg>