<svg xmlns="http://www.w3.org/2000/svg" viewBox="0 0 512 512" width="80" height="80"><path d="M502.94 188.276c-1.46-5.342-6.984-8.488-12.314-7.027-5.342 1.46-8.49 6.973-7.028 12.314 5.54 20.265 8.35 41.27 8.35 62.435 0 130.1-105.846 235.946-235.948 235.946S20.053 386.102 20.053 256 125.898 20.053 256 20.053c71.284 0 138.517 32.33 183.15 87.245h-15.393c-5.54 0-10.027 4.49-10.027 10.027 0 5.537 4.488 10.027 10.027 10.027h38.792c5.538 0 10.026-4.49 10.026-10.027v-38.79c0-5.538-4.488-10.028-10.027-10.028-5.54 0-10.028 4.49-10.028 10.027v13.44C404.108 34.022 332.182 0 256 0 114.84 0 0 114.84 0 256s114.84 256 256 256 256-114.84 256-256c0-22.95-3.048-45.736-9.06-67.724z" fill="#3C3D49"/><path d="M234.738 350.92h-80.74l50.725-50.726c25.82-25.82 40.04-60.15 40.04-96.666 0-34.462-28.036-62.5-62.498-62.5-34.462 0-62.5 28.038-62.5 62.5 0 5.537 4.49 10.027 10.028 10.027 5.54 0 10.027-4.49 10.027-10.027 0-23.405 19.04-42.446 42.446-42.446 23.405 0 42.446 19.04 42.446 42.446 0 31.16-12.134 60.454-34.168 82.487l-67.842 67.842c-2.868 2.868-3.725 7.18-2.172 10.926 1.55 3.747 5.208 6.19 9.263 6.19h104.945c5.54 0 10.027-4.49 10.027-10.027s-4.488-10.027-10.027-10.027zM395.577 282.07h-27.82V151.054c0-4.51-3.01-8.466-7.36-9.666-4.352-1.2-8.962.65-11.275 4.524l-84.224 141.04c-1.85 3.1-1.893 6.953-.11 10.09 1.78 3.14 5.11 5.077 8.718 5.077h74.197v58.824c0 5.537 4.488 10.027 10.027 10.027 5.54 0 10.027-4.488 10.027-10.026V302.12h27.82c5.538 0 10.027-4.488 10.027-10.026s-4.488-10.025-10.027-10.025zm-47.872 0h-56.53l56.53-94.668v94.667zM256 35.845c-5.54 0-10.027 4.49-10.027 10.027v13.07c0 5.538 4.49 10.028 10.027 10.028 5.54 0 10.027-4.49 10.027-10.027V45.87c0-5.536-4.488-10.025-10.027-10.025zM256 443.03c-5.54 0-10.027 4.49-10.027 10.028v13.07c0 5.538 4.488 10.028 10.027 10.028s10.027-4.49 10.027-10.027v-13.072c0-5.537-4.488-10.027-10.027-10.027zM468.216 245.973h-15.158c-5.54 0-10.027 4.49-10.027 10.027s4.49 10.027 10.028 10.027h15.158c5.54 0 10.027-4.49 10.027-10.027s-4.49-10.027-10.027-10.027zM58.942 245.973H43.784c-5.54 0-10.027 4.49-10.027 10.027s4.488 10.027 10.027 10.027h15.158c5.537 0 10.027-4.49 10.027-10.027s-4.49-10.027-10.028-10.027z" fill="#3C3D49"/><circle cx="440.022" cy="149.758" r="10.027" fill="#3C3D49"/><circle cx="362.242" cy="71.977" r="10.027" fill="#3C3D49"/><circle cx="149.744" cy="71.977" r="10.027" fill="#3C3D49"/><circle cx="71.969" cy="149.758" r="10.027" fill="#3C3D49"/><circle cx="71.969" cy="362.256" r="10.027" fill="#3C3D49"/><circle cx="149.744" cy="440.035" r="10.027" fill="#3C3D49"/><circle cx="362.242" cy="440.022" r="10.027" fill="#3C3D49"/><circle cx="440.022" cy="362.242" r="10.027" fill="#3C3D49"/></svg>