<svg width="240" height="71" viewBox="0 0 240 71" xmlns="http://www.w3.org/2000/svg"><title>logo</title><g fill="none"><path d="M84.57 34.85c-.95 0-1.7.31-2.24.93-.48.56-.72 1.26-.72 2.09v16.91c0 .82.24 1.5.72 2.06.54.62 1.29.94 2.24.94h4.45c3.41 0 6.07-1.15 8-3.43 1.81-2.1 2.71-4.78 2.71-8.04 0-3.26-.9-5.94-2.71-8.04-1.93-2.28-4.59-3.42-8-3.42h-4.45zm.36 21.17c-.46 0-.81-.14-1.06-.43-.21-.25-.31-.56-.31-.94V38c0-.4.1-.71.31-.96.25-.3.6-.44 1.06-.44h4.09c2.78 0 4.95.96 6.53 2.86 1.47 1.77 2.2 4.05 2.2 6.85 0 2.78-.73 5.06-2.2 6.81-1.58 1.93-3.75 2.9-6.53 2.9h-4.09zm28.98-18.94c2.8 0 4.95 1 6.46 3.02 1.33 1.76 1.99 4.02 1.99 6.78 0 2.72-.66 4.95-1.99 6.7-1.51 2.01-3.66 3.02-6.46 3.02-2.82 0-4.97-1.01-6.46-3.02-1.31-1.75-1.96-3.98-1.96-6.7 0-2.78.65-5.04 1.96-6.78 1.49-2.02 3.64-3.02 6.46-3.02zm0-1.72c-3.4 0-6.05 1.2-7.94 3.61-1.62 2.1-2.42 4.74-2.42 7.91 0 3.14.8 5.74 2.42 7.82 1.87 2.41 4.52 3.62 7.94 3.62 3.38 0 6.02-1.21 7.91-3.62 1.66-2.1 2.49-4.7 2.49-7.82 0-3.15-.83-5.79-2.49-7.91-1.89-2.41-4.53-3.61-7.91-3.61zm16.58 1.48v20.47c0 .31.1.56.28.75.2.16.42.24.7.24.25 0 .47-.08.66-.24.2-.19.31-.44.31-.75V38.53l6.66 18.62c.34.77.8 1.15 1.38 1.15.57 0 1.03-.38 1.37-1.15l6.66-18.62v18.78c0 .31.1.56.28.75.19.16.42.24.69.24.25 0 .48-.08.66-.24.21-.19.32-.44.32-.75V36.84c0-.45-.15-.81-.44-1.09-.25-.25-.57-.38-.94-.4-.38-.04-.73.03-1.07.22-.33.23-.56.54-.68.93l-6.86 18.94-6.86-18.94c-.12-.41-.35-.72-.68-.93-.32-.19-.67-.27-1.07-.25-.39.04-.71.18-.96.43-.27.28-.41.64-.41 1.09zm24.25-.21l6.32 14.98-1.41 3.3c-.28.63-.56 1.05-.81 1.28-.27.25-.62.37-1.05.37h-1.44c-.29 0-.51.09-.68.25-.17.17-.25.37-.25.6 0 .23.08.43.25.59.17.19.39.29.68.29h1.44c.97 0 1.76-.25 2.36-.75.54-.49 1.03-1.26 1.47-2.32l8.28-18.77c.09-.25.06-.48-.06-.69-.13-.19-.32-.31-.59-.37a1.27 1.27 0 0 0-.75.02c-.27.09-.44.26-.53.54l-5.82 13.17-5.61-13.27c-.1-.27-.28-.44-.53-.49-.23-.07-.47-.05-.72.05-.25.11-.43.26-.55.47-.13.23-.13.48 0 .75zm28.25-1.27c-2.93 0-5.33 1.06-7.2 3.21-1.88 2.11-2.82 4.82-2.82 8.13 0 3.63.91 6.48 2.72 8.53 1.79 2.04 4.22 3.06 7.3 3.06 2.61 0 4.72-.68 6.32-2.04 1.3-1.08 2.22-2.52 2.74-4.33.08-.37.04-.68-.13-.93-.14-.23-.36-.37-.65-.44-.27-.06-.52-.03-.75.1-.27.14-.43.38-.46.71-.46 1.79-1.33 3.11-2.62 3.99-1.16.81-2.65 1.21-4.45 1.21-2.42 0-4.34-.79-5.77-2.39-1.53-1.73-2.3-4.22-2.3-7.47 0-2.97.77-5.34 2.3-7.1 1.5-1.68 3.42-2.52 5.77-2.52 1.82 0 3.32.37 4.48 1.12 1.3.85 2.14 2.14 2.49 3.86.06.38.22.65.47.81.2.15.43.19.68.12.27-.05.48-.2.63-.43.16-.25.22-.52.18-.81-.37-1.89-1.23-3.39-2.58-4.49-1.58-1.27-3.7-1.9-6.35-1.9z" fill="#2D2D38"/><path d="M13.46 69.22h1.6l-.54-45.81c-.18.09-.35.18-.52.27l-.54 45.54zm2.62 0h1.59l-.55-47.14c-.16.08-.32.16-.49.25l-.55 46.89zm2.62 0h1.59l-.57-48.41c-.13.06-.29.13-.46.21l-.56 48.2zm2.62 0h1.59l-.57-48.64h-.45l-.57 48.64zm2.61 0h1.6l-.58-48.64h-.44l-.58 48.64zm5.24 0h1.59l-.7-59.97-.19.09zm2.62 0h1.59l-.72-61.21-.16.08zm2.61 0H36l-.74-62.44-.12.06zm2.62 0h1.59l-.74-63.68-.1.05zm2.62 0h1.59l-.74-62.85-.11-.06zm2.62 0h1.59l-.72-61.4-.15-.09zm2.61 0h1.6l-.71-59.96-.18-.1zm5.24 0h1.59l-.57-48.34h-.45zm2.62 0h1.59l-.57-48.34h-.46zm2.61 0h1.6l-.57-48.05-.46-.26zm2.62 0h1.59l-.54-46.57-.5-.28zm2.62 0h1.59l-.53-45.1-.53-.29z" fill="#32323D"/><path d="M67.78 68.34V22.28l-.88-.49-10.82-6.06H50.1V6.36L38.49 0l-12.7 6.03v9.4h-5.46c-.26 0-.8.01-11.64 5.78-.14.07-.27.14-.41.22l-.47.25v46.66H0v1.76h9.58V22.74c4.76-2.53 9.98-5.23 10.86-5.54h7.11V7.15l10.88-5.17 9.9 5.43V17.5h7.29l10.4 5.82V70.1h10.16v-1.76h-8.4z" fill="#E89D2E"/><path fill="#E89D2E" d="M74.15 68.35h165.41v1.75H74.15z"/></g></svg>