<?xml version="1.0" encoding="UTF-8" standalone="no"?>
<!-- Created with Inkscape (http://www.inkscape.org/) -->

<svg
   xmlns:dc="http://purl.org/dc/elements/1.1/"
   xmlns:cc="http://creativecommons.org/ns#"
   xmlns:rdf="http://www.w3.org/1999/02/22-rdf-syntax-ns#"
   xmlns:svg="http://www.w3.org/2000/svg"
   xmlns="http://www.w3.org/2000/svg"
   xmlns:sodipodi="http://sodipodi.sourceforge.net/DTD/sodipodi-0.dtd"
   xmlns:inkscape="http://www.inkscape.org/namespaces/inkscape"
   width="848.83459"
   height="248.38582"
   id="svg3218"
   version="1.1"
   inkscape:version="0.48.4 r9939"
   sodipodi:docname="New document 6">
  <defs
     id="defs3220" />
  <sodipodi:namedview
     id="base"
     pagecolor="#ffffff"
     bordercolor="#666666"
     borderopacity="1.0"
     inkscape:pageopacity="0.0"
     inkscape:pageshadow="2"
     inkscape:zoom="0.35"
     inkscape:cx="476.56017"
     inkscape:cy="-35.807086"
     inkscape:document-units="px"
     inkscape:current-layer="layer1"
     showgrid="false"
     fit-margin-top="0"
     fit-margin-left="0"
     fit-margin-right="0"
     fit-margin-bottom="0"
     inkscape:window-width="1321"
     inkscape:window-height="744"
     inkscape:window-x="45"
     inkscape:window-y="24"
     inkscape:window-maximized="1" />
  <metadata
     id="metadata3223">
    <rdf:RDF>
      <cc:Work
         rdf:about="">
        <dc:format>image/svg+xml</dc:format>
        <dc:type
           rdf:resource="http://purl.org/dc/dcmitype/StillImage" />
        <dc:title></dc:title>
      </cc:Work>
    </rdf:RDF>
  </metadata>
  <g
     inkscape:label="Layer 1"
     inkscape:groupmode="layer"
     id="layer1"
     transform="translate(101.56017,-248.16927)">
    <g
       transform="matrix(0.03543307,0,0,0.03543307,-169.76883,40.531482)"
       style="fill-rule:evenodd"
       id="_754757984">
      <path
         style="fill:#2d2d38;fill-rule:nonzero"
         inkscape:connector-curvature="0"
         id="path3087"
         d="m 10168,11477 0,0 0,702 c 0,38 11,68 34,90 25,24 58,35 102,35 l 448,0 c 39,0 70,15 91,43 18,24 39,75 63,152 7,26 18,37 33,32 16,-4 25,-21 26,-49 l 0,-126 c 0,-20 -5,-33 -14,-41 -7,-6 -19,-12 -38,-17 -16,-6 -30,-17 -42,-32 -13,-17 -20,-34 -20,-52 l 0,-737 c 0,-16 -6,-28 -16,-38 -10,-7 -21,-11 -34,-11 -13,0 -25,4 -35,11 -9,10 -14,22 -14,38 l 0,741 -429,0 c -23,0 -37,-3 -45,-9 -7,-7 -11,-20 -11,-40 l 0,-692 c 0,-16 -5,-28 -16,-38 -9,-7 -21,-11 -34,-11 -14,0 -26,4 -35,11 -10,10 -14,22 -14,38 z m 1534,587 0,0 c -25,55 -54,96 -87,123 -42,37 -95,56 -158,56 -80,0 -145,-37 -192,-109 -41,-63 -64,-139 -68,-229 l 622,0 0,-23 c 0,-124 -30,-229 -91,-314 -68,-93 -158,-139 -271,-139 -113,0 -203,46 -270,139 -60,86 -90,190 -90,314 0,122 30,225 90,309 67,93 157,139 270,139 80,0 150,-20 209,-60 58,-39 102,-96 133,-170 6,-16 6,-31 0,-44 -5,-12 -15,-20 -27,-24 -14,-5 -27,-6 -40,-1 -14,6 -24,17 -30,33 z m -502,-246 0,0 c 6,-77 29,-143 68,-199 48,-69 110,-103 189,-103 78,0 141,35 190,104 39,57 61,123 68,198 l -515,0 z m 898,-333 0,0 0,788 c 0,18 5,33 15,44 10,10 21,15 35,16 13,0 24,-5 33,-16 11,-10 16,-25 16,-42 l 0,-366 508,0 0,370 c 0,16 5,29 14,40 10,8 22,12 35,13 13,-1 24,-5 34,-13 10,-11 16,-24 16,-40 l 0,-799 c 0,-16 -6,-30 -16,-39 -10,-9 -21,-13 -34,-13 -13,0 -25,4 -35,11 -9,10 -14,23 -14,38 l 0,344 -508,0 0,-336 c 0,-18 -5,-32 -16,-42 -9,-10 -20,-15 -33,-15 -14,0 -25,4 -35,13 -10,11 -15,25 -15,44 z m 1688,-29 0,0 -704,0 c -28,0 -42,14 -41,43 0,30 14,45 41,45 l 307,0 0,736 c 0,16 5,29 15,40 9,8 21,12 35,12 13,0 24,-4 33,-14 11,-9 16,-22 16,-38 l 0,-736 299,0 c 16,0 29,-5 39,-15 7,-8 11,-18 11,-30 0,-11 -5,-21 -13,-30 -9,-9 -22,-13 -38,-13 z m 259,1018 0,0 c 0,18 4,33 14,45 10,9 21,14 35,14 13,1 24,-3 34,-13 10,-10 15,-24 15,-41 l 0,-282 c 23,37 56,67 100,91 52,28 110,42 174,42 121,0 216,-47 284,-141 61,-82 91,-186 91,-310 0,-125 -30,-229 -91,-311 -68,-93 -163,-139 -284,-139 -59,0 -112,12 -159,38 -46,24 -84,59 -115,106 l 0,-105 c 0,-27 -16,-41 -49,-41 -33,0 -49,14 -49,41 l 0,1006 z m 372,-958 0,0 c 89,0 159,38 208,113 44,66 67,150 67,251 0,101 -23,184 -67,250 -49,75 -119,113 -208,113 -90,0 -159,-38 -209,-113 -43,-66 -65,-149 -65,-250 0,-101 22,-185 65,-251 50,-75 119,-113 209,-113 z m 1194,-31 0,0 0,788 c 0,18 5,33 14,44 10,10 22,15 36,16 12,0 24,-5 33,-16 11,-10 16,-25 16,-42 l 0,-366 508,0 0,370 c 0,16 5,29 14,40 10,8 21,12 35,13 13,-1 24,-5 34,-13 10,-11 16,-24 16,-40 l 0,-799 c 0,-16 -6,-30 -16,-39 -10,-9 -21,-13 -34,-13 -14,0 -25,4 -35,11 -9,10 -14,23 -14,38 l 0,344 -508,0 0,-336 c 0,-18 -5,-32 -16,-42 -9,-10 -21,-15 -33,-15 -14,0 -26,4 -36,13 -9,11 -14,25 -14,44 z m 1352,-56 0,0 c -126,0 -224,46 -295,139 -62,84 -94,188 -94,314 0,123 32,226 94,309 71,93 169,139 295,139 124,0 222,-46 293,-139 64,-83 95,-186 95,-309 0,-126 -31,-230 -95,-314 -71,-93 -169,-139 -293,-139 z m 0,87 0,0 c 93,0 165,38 217,113 47,66 71,150 71,251 0,101 -24,184 -71,250 -52,75 -124,113 -217,113 -94,0 -167,-38 -220,-113 -45,-66 -68,-149 -68,-250 0,-101 23,-185 68,-251 53,-75 126,-113 220,-113 z m 797,-60 0,0 c -38,0 -66,8 -85,24 -18,17 -27,43 -27,78 l 0,640 c 0,32 8,57 25,75 18,20 44,30 78,30 l 358,0 c 73,0 133,-20 180,-59 51,-42 77,-101 77,-177 0,-53 -14,-96 -41,-128 -26,-31 -63,-54 -113,-68 42,-16 73,-41 92,-75 18,-29 27,-67 27,-114 0,-70 -22,-125 -67,-164 -46,-41 -113,-62 -199,-62 l -305,0 z m -13,451 0,0 324,0 c 53,0 98,14 135,43 39,30 58,69 58,115 0,47 -19,85 -58,112 -36,25 -84,38 -143,38 l -256,0 c -22,0 -38,-5 -47,-16 -9,-9 -13,-23 -13,-41 l 0,-251 z m 0,-88 0,0 0,-212 c 0,-20 4,-35 13,-46 10,-12 26,-17 47,-17 l 245,0 c 59,0 103,11 132,34 30,24 45,58 45,104 0,44 -14,78 -41,101 -28,24 -67,36 -117,36 l -324,0 z m 1243,-390 0,0 c -126,0 -224,46 -295,139 -62,84 -93,188 -93,314 0,123 31,226 93,309 71,93 169,139 295,139 125,0 222,-46 293,-139 64,-83 95,-186 95,-309 0,-126 -31,-230 -95,-314 -71,-93 -168,-139 -293,-139 z m 0,87 0,0 c 93,0 165,38 217,113 47,66 71,150 71,251 0,101 -24,184 -71,250 -52,75 -124,113 -217,113 -94,0 -167,-38 -220,-113 -45,-66 -68,-149 -68,-250 0,-101 23,-185 68,-251 53,-75 126,-113 220,-113 z m 1012,-87 0,0 c -123,0 -219,46 -288,139 -60,84 -91,188 -91,314 0,130 29,234 88,314 66,89 163,134 291,134 105,0 188,-26 248,-79 54,-50 88,-119 99,-206 1,-16 -3,-30 -12,-42 -10,-10 -22,-16 -37,-18 -15,-3 -27,1 -38,9 -12,9 -19,24 -20,43 -8,69 -32,121 -73,155 -40,34 -98,51 -173,51 -91,0 -160,-36 -207,-108 -44,-65 -65,-150 -65,-255 0,-102 21,-186 65,-251 48,-75 118,-113 207,-113 65,0 118,16 160,48 40,30 64,69 71,117 3,16 9,28 21,36 12,8 24,11 38,10 15,-2 27,-8 35,-18 10,-11 15,-24 14,-39 -7,-64 -39,-118 -95,-165 -63,-51 -142,-76 -238,-76 z m 1283,27 0,0 -704,0 c -28,0 -42,14 -41,43 0,30 14,45 41,45 l 307,0 0,736 c 0,16 5,29 15,40 9,8 21,12 35,12 12,0 24,-4 33,-14 11,-9 16,-22 16,-38 l 0,-736 299,0 c 16,0 29,-5 38,-15 8,-8 12,-18 12,-30 0,-11 -5,-21 -13,-30 -10,-9 -22,-13 -38,-13 z m 258,1018 0,0 c 0,18 5,33 15,45 9,9 21,14 35,14 13,1 24,-3 33,-13 11,-10 16,-24 16,-41 l 0,-282 c 22,37 56,67 100,91 52,28 110,42 174,42 121,0 216,-47 283,-141 61,-82 92,-186 92,-310 0,-125 -31,-229 -92,-311 -67,-93 -162,-139 -283,-139 -59,0 -112,12 -160,38 -45,24 -83,59 -114,106 l 0,-105 c 0,-27 -16,-41 -49,-41 -33,0 -50,14 -50,41 l 0,1006 z m 373,-958 0,0 c 89,0 159,38 208,113 44,66 66,150 66,251 0,101 -22,184 -66,250 -49,75 -119,113 -208,113 -90,0 -159,-38 -209,-113 -43,-66 -65,-149 -65,-250 0,-101 22,-185 65,-251 50,-75 119,-113 209,-113 z m 992,-87 0,0 c -126,0 -224,46 -295,139 -62,84 -93,188 -93,314 0,123 31,226 93,309 71,93 169,139 295,139 125,0 223,-46 293,-139 64,-83 95,-186 95,-309 0,-126 -31,-230 -95,-314 -70,-93 -168,-139 -293,-139 z m 0,87 0,0 c 93,0 165,38 217,113 47,66 71,150 71,251 0,101 -24,184 -71,250 -52,75 -124,113 -217,113 -94,0 -167,-38 -220,-113 -45,-66 -68,-149 -68,-250 0,-101 23,-185 68,-251 53,-75 126,-113 220,-113 z m 1225,548 0,0 c -26,55 -55,96 -88,123 -42,37 -94,56 -158,56 -80,0 -144,-37 -191,-109 -42,-63 -64,-139 -68,-229 l 622,0 0,-23 c 0,-124 -31,-229 -92,-314 -67,-93 -158,-139 -271,-139 -113,0 -202,46 -269,139 -60,86 -90,190 -90,314 0,122 30,225 90,309 67,93 156,139 269,139 80,0 150,-20 209,-60 58,-39 103,-96 133,-170 7,-16 7,-31 0,-44 -5,-12 -14,-20 -27,-24 -13,-5 -27,-6 -39,-1 -14,6 -24,17 -30,33 z m -502,-246 0,0 c 6,-77 29,-143 68,-199 47,-69 110,-103 188,-103 78,0 142,35 190,104 39,57 62,123 68,198 l -514,0 z m 877,-337 0,0 0,801 c 0,15 5,27 14,37 10,8 22,12 35,12 13,0 24,-5 34,-14 10,-9 16,-22 16,-38 l 0,-277 111,-101 345,405 c 10,13 22,22 38,24 13,2 25,-1 36,-8 12,-8 18,-18 19,-30 3,-15 -2,-30 -14,-45 l -364,-410 336,-336 c 8,-10 12,-21 11,-33 -1,-10 -6,-20 -16,-28 -9,-8 -19,-11 -30,-11 -14,0 -26,5 -37,17 l -435,435 0,-402 c 0,-16 -6,-28 -16,-38 -10,-8 -21,-12 -34,-12 -13,0 -25,4 -35,12 -9,10 -14,23 -14,40 z"
         class="fil0" />
      <path
         style="fill:#2d2d38;fill-rule:nonzero"
         inkscape:connector-curvature="0"
         id="path3089"
         d="m 10482,8245 c -95,0 -170,31 -224,93 -48,56 -72,126 -72,209 l 0,1691 c 0,82 24,150 72,206 54,62 129,94 224,94 l 445,0 c 341,0 607,-115 800,-343 181,-210 271,-478 271,-804 0,-326 -90,-594 -271,-804 -193,-228 -459,-342 -800,-342 l -445,0 z m 36,2117 c -46,0 -81,-14 -106,-43 -21,-25 -31,-56 -31,-94 l 0,-1665 c 0,-40 10,-71 31,-96 25,-30 60,-44 106,-44 l 409,0 c 278,0 495,96 653,286 147,177 220,405 220,685 0,278 -73,506 -220,681 -158,193 -375,290 -653,290 l -409,0 z m 2898,-1894 0,0 c 280,0 495,100 646,302 133,176 199,402 199,678 0,272 -66,495 -199,670 -151,201 -366,302 -646,302 -282,0 -497,-101 -646,-302 -131,-175 -196,-398 -196,-670 0,-278 65,-504 196,-678 149,-202 364,-302 646,-302 z m 0,-172 0,0 c -340,0 -605,120 -794,361 -162,210 -242,474 -242,791 0,314 80,574 242,782 187,241 452,362 794,362 338,0 602,-121 791,-362 166,-210 249,-470 249,-782 0,-315 -83,-579 -249,-791 -189,-241 -453,-361 -791,-361 z m 1658,148 0,0 0,2047 c 0,31 10,56 28,75 20,16 42,24 70,24 25,0 47,-8 66,-24 20,-19 31,-44 31,-75 l 0,-1878 666,1862 c 34,77 80,115 138,115 57,0 103,-38 137,-115 l 666,-1862 0,1878 c 0,31 10,56 28,75 19,16 42,24 69,24 25,0 48,-8 66,-24 21,-19 32,-44 32,-75 l 0,-2047 c 0,-45 -15,-81 -44,-109 -25,-25 -57,-38 -94,-40 -38,-4 -73,3 -107,22 -33,23 -56,54 -68,93 l -686,1894 -686,-1894 c -12,-41 -35,-72 -68,-93 -32,-19 -67,-27 -107,-25 -39,4 -71,18 -96,43 -27,28 -41,64 -41,109 z m 2425,-21 0,0 632,1498 -141,330 c -28,63 -56,105 -81,128 -27,25 -62,37 -105,37 l -144,0 c -29,0 -51,9 -68,25 -17,17 -25,37 -25,60 0,23 8,43 25,59 17,19 39,29 68,29 l 144,0 c 97,0 176,-25 236,-75 54,-49 103,-126 147,-232 l 828,-1877 c 9,-25 6,-48 -6,-69 -13,-19 -32,-31 -59,-37 -27,-7 -52,-6 -75,2 -27,9 -44,26 -53,54 l -582,1317 -561,-1327 c -10,-27 -28,-44 -53,-49 -23,-7 -47,-5 -72,5 -25,11 -43,26 -55,47 -13,23 -13,48 0,75 z m 2825,-127 0,0 c -293,0 -533,106 -720,321 -188,211 -282,482 -282,813 0,363 91,648 272,853 179,204 422,306 730,306 261,0 472,-68 632,-204 130,-108 222,-252 274,-433 8,-37 4,-68 -13,-93 -14,-23 -36,-37 -65,-44 -27,-6 -52,-3 -75,10 -27,14 -43,38 -46,71 -46,179 -133,311 -262,399 -116,81 -265,121 -445,121 -242,0 -434,-79 -577,-239 -153,-173 -230,-422 -230,-747 0,-297 77,-534 230,-710 150,-168 342,-252 577,-252 182,0 332,37 448,112 130,85 214,214 249,386 6,38 22,65 47,81 20,15 43,19 68,12 27,-5 48,-20 63,-43 16,-25 22,-52 18,-81 -37,-189 -123,-339 -258,-449 -158,-127 -370,-190 -635,-190 z"
         class="fil0" />
      <path
         style="fill:#32323d;fill-rule:nonzero"
         inkscape:connector-curvature="0"
         id="path3091"
         d="m 3271,12782 160,0 -54,-4581 c -18,9 -35,18 -52,27 l -54,4554 z"
         class="fil1" />
      <path
         style="fill:#32323d;fill-rule:nonzero"
         inkscape:connector-curvature="0"
         id="path3093"
         d="m 3533,12782 159,0 -55,-4714 c -16,8 -32,16 -49,25 l -55,4689 z"
         class="fil1" />
      <path
         style="fill:#32323d;fill-rule:nonzero"
         inkscape:connector-curvature="0"
         id="path3095"
         d="m 3795,12782 159,0 -57,-4841 c -13,6 -29,13 -46,21 l -56,4820 z"
         class="fil1" />
      <path
         style="fill:#32323d;fill-rule:nonzero"
         inkscape:connector-curvature="0"
         id="path3097"
         d="m 4057,12782 159,0 -57,-4864 c -16,0 -31,0 -45,0 l -57,4864 z"
         class="fil1" />
      <path
         style="fill:#32323d;fill-rule:nonzero"
         inkscape:connector-curvature="0"
         id="path3099"
         d="m 4318,12782 160,0 -58,-4864 c -14,0 -29,0 -44,0 l -58,4864 z"
         class="fil1" />
      <polygon
         style="fill:#32323d;fill-rule:nonzero"
         id="polygon3101"
         points="4842,12782 5001,12782 4931,6785 4912,6794 "
         class="fil1" />
      <polygon
         style="fill:#32323d;fill-rule:nonzero"
         id="polygon3103"
         points="5104,12782 5263,12782 5191,6661 5175,6669 "
         class="fil1" />
      <polygon
         style="fill:#32323d;fill-rule:nonzero"
         id="polygon3105"
         points="5365,12782 5525,12782 5451,6538 5439,6544 "
         class="fil1" />
      <polygon
         style="fill:#32323d;fill-rule:nonzero"
         id="polygon3107"
         points="5627,12782 5786,12782 5712,6414 5702,6419 "
         class="fil1" />
      <polygon
         style="fill:#32323d;fill-rule:nonzero"
         id="polygon3109"
         points="5889,12782 6048,12782 5974,6497 5963,6491 "
         class="fil1" />
      <polygon
         style="fill:#32323d;fill-rule:nonzero"
         id="polygon3111"
         points="6151,12782 6310,12782 6238,6642 6223,6633 "
         class="fil1" />
      <polygon
         style="fill:#32323d;fill-rule:nonzero"
         id="polygon3113"
         points="6412,12782 6572,12782 6501,6786 6483,6776 "
         class="fil1" />
      <polygon
         style="fill:#32323d;fill-rule:nonzero"
         id="polygon3115"
         points="6936,12782 7095,12782 7038,7948 6993,7948 "
         class="fil1" />
      <polygon
         style="fill:#32323d;fill-rule:nonzero"
         id="polygon3117"
         points="7198,12782 7357,12782 7300,7948 7254,7948 "
         class="fil1" />
      <polygon
         style="fill:#32323d;fill-rule:nonzero"
         id="polygon3119"
         points="7459,12782 7619,12782 7562,7977 7516,7951 "
         class="fil1" />
      <polygon
         style="fill:#32323d;fill-rule:nonzero"
         id="polygon3121"
         points="7721,12782 7880,12782 7826,8125 7776,8097 "
         class="fil1" />
      <polygon
         style="fill:#32323d;fill-rule:nonzero"
         id="polygon3123"
         points="7983,12782 8142,12782 8089,8272 8036,8243 "
         class="fil1" />
      <path
         style="fill:#e89d2e;fill-rule:nonzero"
         inkscape:connector-curvature="0"
         id="path3125"
         d="m 8703,12694 0,-4606 -88,-49 -1082,-606 -598,0 0,-937 -1161,-636 -1270,603 0,940 -546,0 c -26,0 -80,1 -1164,578 -14,7 -27,14 -41,22 l -47,25 0,4666 -781,0 0,176 958,0 0,-4409 0,-327 c 476,-253 998,-523 1086,-554 l 711,0 0,-1005 1088,-517 990,543 0,1009 729,0 1040,582 0,325 0,4353 1016,0 0,-176 -840,0 z"
         class="fil2" />
      <rect
         style="fill:#e89d2e"
         id="rect3127"
         height="175"
         width="16541"
         y="12695"
         x="9340"
         class="fil3" />
    </g>
  </g>
</svg>
